<?xml version="1.0" standalone="no"?>
<!DOCTYPE svg PUBLIC "-//W3C//DTD SVG 20010904//EN"
 "http://www.w3.org/TR/2001/REC-SVG-20010904/DTD/svg10.dtd">
<svg version="1.0" xmlns="http://www.w3.org/2000/svg"
 width="502.000000pt" height="502.000000pt" viewBox="0 0 502.000000 502.000000"
 preserveAspectRatio="xMidYMid meet">
<metadata>
Created by potrace 1.14, written by Peter Selinger 2001-2017
</metadata>
<g transform="translate(0.000000,502.000000) scale(0.100000,-0.100000)"
fill="#000000" stroke="none">
<path d="M2302 4910 c-29 -3 -66 -5 -82 -5 -17 0 -30 -2 -30 -5 0 -3 -10 -5
-22 -6 -28 0 -90 -11 -143 -23 -22 -6 -41 -8 -44 -6 -2 3 -9 1 -15 -4 -6 -4
-53 -18 -103 -31 -51 -13 -93 -26 -93 -30 0 -3 -11 -7 -25 -8 -14 -1 -39 -9
-55 -17 -16 -8 -37 -17 -47 -18 -41 -8 -233 -95 -244 -110 -3 -5 -9 -8 -13 -8
-12 1 -76 -33 -76 -41 0 -4 -5 -8 -10 -8 -12 0 -94 -52 -98 -62 -2 -5 -10 -8
-18 -8 -8 0 -17 -7 -20 -15 -4 -8 -9 -13 -14 -10 -4 2 -16 -4 -26 -13 -10 -10
-40 -33 -66 -51 -27 -19 -48 -37 -48 -40 0 -3 -21 -19 -45 -36 -25 -16 -45
-36 -45 -43 0 -7 -4 -11 -8 -8 -5 3 -41 -28 -81 -69 -40 -41 -77 -75 -82 -75
-6 0 -7 -4 -4 -10 3 -5 2 -10 -3 -10 -7 0 -50 -49 -134 -154 -28 -33 -31 -38
-63 -86 -16 -25 -33 -47 -36 -50 -3 -3 -14 -21 -25 -40 -10 -19 -22 -37 -25
-40 -3 -3 -14 -21 -24 -40 -10 -19 -21 -37 -24 -40 -6 -5 -43 -79 -46 -90 0
-3 -8 -18 -17 -35 -14 -26 -27 -57 -81 -185 -6 -14 -11 -28 -12 -32 -2 -5 -4
-11 -5 -15 -2 -5 -4 -12 -5 -18 -1 -5 -8 -23 -14 -40 -7 -16 -14 -34 -15 -40
-2 -5 -9 -30 -16 -55 -18 -62 -18 -61 -25 -95 -3 -16 -12 -57 -20 -90 -8 -33
-17 -78 -19 -100 -3 -22 -8 -67 -13 -100 -13 -96 -7 -615 7 -615 3 0 5 -10 6
-22 1 -22 10 -75 20 -122 3 -11 7 -32 10 -46 2 -14 7 -32 10 -40 3 -8 8 -28
11 -45 3 -16 9 -38 14 -47 5 -10 7 -18 4 -18 -3 0 1 -13 10 -30 8 -16 14 -33
13 -37 -1 -4 3 -18 10 -29 6 -12 8 -24 5 -28 -3 -3 -1 -6 6 -6 7 0 10 -4 6 -9
-3 -6 4 -26 15 -45 11 -20 17 -36 14 -36 -4 0 1 -11 10 -25 9 -14 14 -25 10
-25 -3 0 1 -11 10 -25 9 -13 16 -30 16 -38 0 -7 8 -22 18 -33 10 -10 19 -23
20 -29 6 -28 16 -51 27 -65 7 -8 27 -44 46 -80 18 -36 41 -72 51 -81 10 -9 15
-18 13 -21 -3 -3 6 -17 19 -31 13 -14 22 -28 20 -30 -2 -2 5 -12 16 -22 11
-10 20 -24 20 -32 0 -7 4 -13 8 -13 5 0 23 -19 40 -43 17 -24 44 -58 61 -76
16 -18 45 -50 63 -72 18 -21 38 -39 45 -39 7 0 13 -5 13 -10 0 -6 14 -23 30
-38 17 -15 50 -45 73 -67 24 -22 61 -53 82 -70 22 -16 47 -38 57 -48 10 -9 25
-17 34 -17 8 0 12 -4 9 -10 -3 -5 1 -10 9 -10 9 0 16 -4 16 -10 0 -5 4 -10 10
-10 5 0 42 -22 82 -50 40 -27 78 -50 84 -50 7 0 14 -4 16 -9 3 -7 224 -117
283 -141 11 -4 34 -13 50 -21 17 -7 33 -13 38 -15 4 -1 9 -3 12 -4 3 -1 10 -4
15 -5 6 -1 11 -3 13 -5 1 -1 9 -3 17 -5 8 -2 42 -12 75 -23 72 -23 127 -37
139 -34 4 2 14 -2 21 -8 7 -6 31 -11 54 -13 22 -1 41 -5 41 -8 0 -6 3 -7 80
-13 30 -3 55 -5 55 -6 0 -9 184 -21 316 -21 196 1 340 15 494 51 44 10 96 22
115 25 19 4 46 12 60 18 14 5 30 11 35 12 43 7 75 19 75 27 0 5 5 6 10 3 6 -4
18 -1 27 7 9 7 17 12 17 10 3 -9 228 88 238 103 4 5 8 7 8 3 0 -4 26 7 58 25
31 18 74 41 95 52 20 11 37 23 37 27 0 5 4 8 9 8 12 0 97 56 125 82 11 10 26
18 33 18 7 0 13 4 13 10 0 5 19 22 43 39 23 16 63 50 90 75 26 24 47 43 47 42
0 -2 33 29 73 68 40 39 72 72 71 74 -2 3 52 66 89 104 9 10 17 23 17 28 0 6 4
10 8 10 10 0 92 117 92 131 0 5 5 9 10 9 6 0 10 6 10 14 0 8 4 16 8 18 20 8
199 343 194 362 -2 5 5 17 14 27 9 10 13 23 9 28 -3 6 -1 11 5 11 6 0 9 4 5 9
-3 5 -1 12 5 16 6 4 8 11 5 16 -4 5 -1 9 4 9 6 0 10 3 9 8 0 4 1 14 4 22 12
31 59 185 59 192 0 4 5 22 10 40 5 18 12 49 15 68 3 19 11 41 16 48 7 8 7 12
-1 12 -7 0 -9 5 -4 13 9 15 13 33 15 75 1 17 5 32 8 32 5 0 12 101 14 217 0
35 5 63 9 63 5 0 5 5 1 12 -4 6 -8 52 -10 102 -4 140 -15 264 -28 326 -3 14
-13 61 -21 105 -9 44 -19 87 -22 95 -3 8 -8 26 -10 40 -2 13 -9 30 -15 37 -6
7 -8 13 -4 13 3 0 0 15 -8 34 -8 19 -12 37 -8 40 3 3 0 6 -7 6 -7 0 -10 4 -6
10 3 5 1 17 -4 27 -9 17 -23 52 -25 63 -1 3 -5 11 -9 18 -5 6 -5 12 0 12 4 0
2 4 -5 9 -7 4 -14 14 -16 22 -1 8 -7 23 -13 34 -6 11 -12 23 -12 27 -3 15 -15
43 -21 48 -3 3 -14 24 -24 48 -11 23 -23 42 -27 42 -5 0 -6 7 -3 15 4 8 2 15
-4 15 -5 0 -15 14 -22 30 -7 17 -16 30 -21 30 -5 0 -6 6 -3 14 3 7 -2 16 -10
19 -9 4 -16 13 -16 22 0 8 -4 15 -10 15 -5 0 -10 6 -10 13 0 7 -9 23 -20 35
-12 12 -17 22 -13 22 4 0 0 5 -9 11 -10 5 -18 17 -18 24 0 8 -4 15 -8 15 -4 0
-15 12 -24 28 -9 15 -29 39 -43 55 -14 15 -23 27 -20 27 4 0 -19 25 -49 56
-31 30 -56 57 -56 60 0 5 -96 99 -174 171 -26 24 -72 62 -104 85 -31 24 -59
46 -60 51 -2 4 -8 5 -13 1 -5 -3 -9 2 -9 10 0 9 -7 16 -15 16 -8 0 -15 5 -15
10 0 6 -5 10 -10 10 -6 0 -44 23 -86 50 -41 28 -82 50 -89 50 -7 0 -15 3 -17
8 -3 7 -68 39 -183 93 -27 12 -52 23 -55 24 -3 0 -16 7 -30 15 -14 7 -26 13
-27 12 -3 -2 -23 4 -50 15 -10 3 -20 7 -23 8 -3 1 -12 4 -20 8 -51 19 -109 34
-114 29 -3 -3 -6 1 -6 8 0 7 -2 11 -6 8 -3 -3 -25 0 -50 8 -24 7 -44 10 -44 7
0 -3 -7 0 -15 7 -9 7 -18 10 -21 7 -3 -3 -17 -2 -30 3 -12 5 -45 12 -71 15
-26 4 -61 9 -78 11 -102 15 -457 24 -553 14z m136 -552 c0 -7 3 -24 7 -38 3
-14 7 -43 10 -65 2 -22 6 -65 10 -95 4 -30 8 -83 10 -117 2 -34 6 -67 10 -73
3 -5 1 -10 -5 -10 -6 0 -8 -6 -4 -12 4 -8 3 -10 -2 -5 -5 5 -9 12 -10 15 0 4
-3 25 -7 47 -4 22 -9 64 -12 94 -3 30 -7 57 -9 60 -2 3 -7 37 -11 76 -4 38 -9
73 -12 78 -7 11 5 57 16 57 4 0 8 -6 9 -12z m163 -15 c1 -16 1 -31 0 -35 -4
-31 -13 -113 -16 -158 -4 -58 -4 -57 -7 -65 -7 -24 -13 -94 -7 -88 5 5 11 26
15 47 3 22 10 51 16 65 5 14 9 27 9 29 -4 12 1 24 7 18 9 -9 10 -76 0 -76 -3
0 -5 -8 -4 -17 2 -10 -3 -37 -9 -61 -7 -23 -14 -45 -14 -47 -1 -3 -6 -15 -11
-27 -8 -22 -9 -22 -9 4 -1 18 -5 26 -13 23 -14 -5 -14 -7 -4 150 10 159 18
238 25 263 1 1 6 2 11 2 6 0 11 -12 11 -27z m164 -21 c0 -9 -3 -19 -7 -22 -4
-3 -9 -17 -11 -30 -2 -14 -6 -32 -10 -40 -18 -48 -26 -83 -21 -91 3 -5 1 -9
-5 -9 -5 0 -12 -13 -16 -30 -4 -16 -11 -32 -16 -35 -5 -4 -9 -17 -9 -31 0 -13
-4 -24 -9 -24 -8 0 -26 -65 -23 -81 0 -3 -6 -6 -13 -6 -11 0 -12 4 -4 14 9 10
8 13 -2 13 -11 0 -11 2 -1 8 7 5 15 22 18 38 6 28 12 56 13 62 1 1 0 3 -1 5
-1 1 4 12 11 25 7 13 14 32 17 43 7 33 13 52 32 116 11 34 18 64 15 67 -2 2 5
7 16 11 13 4 19 11 15 18 -4 7 -3 8 2 4 5 -5 9 -16 9 -25z m-450 -85 c13 -37
22 -67 19 -67 -3 0 -2 -6 3 -12 4 -7 9 -22 10 -33 2 -10 9 -23 16 -27 6 -4 9
-8 5 -8 -4 0 -3 -11 2 -24 5 -15 5 -27 -2 -34 -9 -9 -5 -10 11 -7 19 3 21 2
11 -10 -8 -10 -8 -19 -1 -33 6 -11 7 -22 4 -26 -3 -3 -1 -6 6 -6 7 0 9 -5 6
-11 -9 -13 -34 19 -35 44 0 9 -4 25 -9 35 -17 29 -59 146 -65 174 -2 14 -9 35
-15 46 -6 11 -13 37 -15 57 -4 34 -3 36 10 24 8 -8 25 -45 39 -82z m-171 2
c-2 -4 3 -9 11 -13 8 -3 15 -12 15 -21 0 -8 5 -15 11 -15 5 0 8 -4 4 -9 -3 -5
-1 -12 5 -16 5 -3 17 -21 26 -40 9 -19 21 -35 26 -35 5 0 7 -4 3 -9 -3 -5 0
-15 7 -23 7 -7 14 -20 16 -28 2 -8 7 -17 11 -20 4 -3 19 -32 33 -65 21 -46 28
-55 34 -41 4 10 3 21 -2 25 -5 3 -10 13 -12 21 -2 8 -8 17 -13 18 -5 2 -9 11
-9 20 0 10 -7 30 -15 46 -18 34 -27 76 -16 76 8 0 9 -2 61 -115 35 -77 46
-122 25 -105 -9 8 -15 8 -20 0 -7 -12 -35 5 -35 21 0 5 -18 36 -40 68 -22 32
-40 64 -40 70 0 6 -4 11 -10 11 -5 0 -10 7 -10 15 0 8 -4 15 -9 15 -5 0 -16
15 -25 33 -9 17 -28 51 -42 75 -27 46 -27 85 0 60 8 -7 12 -16 10 -19z m766
14 c0 -10 -9 -31 -20 -48 -12 -16 -27 -45 -35 -63 -8 -18 -29 -56 -48 -85 -19
-28 -51 -80 -72 -114 -21 -35 -39 -63 -41 -63 -10 0 4 44 14 48 7 2 10 8 6 13
-3 5 0 9 6 9 7 0 10 7 6 15 -3 8 -1 15 5 15 6 0 8 4 5 9 -3 5 1 12 10 15 9 4
14 9 11 12 -3 3 7 27 22 52 15 26 34 62 42 80 7 17 17 32 21 32 5 0 7 3 6 8
-4 11 42 82 53 82 5 0 9 -8 9 -17z m-850 -144 c25 -28 71 -78 103 -112 31 -34
60 -70 63 -79 7 -22 21 -24 21 -3 0 8 -4 12 -9 9 -4 -3 -8 0 -8 7 0 6 -8 19
-18 28 -41 37 -66 91 -41 91 5 0 7 -4 4 -10 -3 -5 2 -10 11 -10 10 0 15 -3 11
-6 -3 -3 6 -18 21 -33 64 -64 126 -176 66 -120 -22 21 -24 21 -18 4 4 -11 12
-23 18 -27 6 -4 7 -10 4 -14 -8 -7 -38 20 -38 35 0 5 -9 13 -20 16 -11 3 -20
11 -20 16 0 12 -119 129 -131 129 -5 0 -9 6 -9 14 0 8 -10 23 -23 33 -32 26
-68 74 -62 84 9 14 28 1 75 -52z m463 28 c-8 -13 -7 -173 1 -186 4 -6 2 -11
-4 -11 -6 0 -8 -5 -4 -12 4 -7 3 -8 -5 -4 -6 4 -9 12 -6 17 4 5 3 9 -2 9 -6 0
-10 203 -4 218 0 1 7 -3 15 -10 8 -7 12 -17 9 -21z m521 25 c3 -4 -15 -31 -40
-59 -72 -81 -244 -255 -244 -246 0 4 10 19 23 33 12 14 34 41 48 60 15 19 41
51 57 70 17 19 43 50 59 68 70 82 85 93 97 74z m-632 -72 c2 -19 6 -37 10 -40
6 -5 15 -47 24 -115 4 -28 2 -36 -4 -25 -6 8 -11 18 -11 22 -1 4 -8 26 -16 48
-8 22 -11 40 -8 40 4 0 2 5 -5 12 -7 7 -12 24 -12 38 0 14 -5 31 -12 38 -9 9
-9 12 0 12 6 0 9 7 5 18 -5 15 -4 15 10 2 8 -8 17 -31 19 -50z m338 15 c0 -1
-7 -16 -16 -33 -8 -17 -16 -41 -17 -52 -1 -11 -5 -20 -9 -20 -4 0 -8 -6 -8
-13 0 -7 -9 -30 -20 -51 -31 -62 -38 -17 -7 48 14 29 31 71 37 94 9 27 17 39
26 35 8 -3 14 -6 14 -8z m106 -60 c-5 -24 -12 -40 -28 -60 -5 -5 -22 -28 -38
-50 -39 -53 -61 -75 -74 -75 -6 0 -4 6 5 13 9 7 14 18 12 25 -3 6 0 12 5 12 5
0 26 27 46 60 21 33 41 60 45 60 5 0 11 9 14 20 7 29 18 25 13 -5z m267 -30
c-60 -54 -62 -55 -73 -55 -5 0 -10 -4 -10 -9 0 -5 -20 -21 -45 -35 -25 -15
-45 -31 -45 -36 0 -6 -4 -10 -9 -10 -13 0 -103 -59 -118 -77 -7 -9 -13 -11
-18 -4 -3 6 -1 11 6 11 7 0 10 3 6 6 -7 7 17 34 30 34 4 0 24 14 43 30 47 40
47 40 113 88 31 24 57 48 57 54 0 6 3 9 6 5 4 -3 22 5 42 18 50 34 60 20 15
-20z m-1208 20 c11 -5 22 -11 25 -15 3 -3 28 -22 55 -40 54 -37 67 -47 93 -70
22 -19 69 -50 77 -50 4 0 0 7 -9 15 -8 8 -17 15 -21 15 -4 0 -13 7 -21 15 -9
8 -12 15 -9 15 4 0 -3 8 -15 18 -20 16 -21 19 -7 25 10 4 17 2 17 -3 0 -6 7
-10 16 -10 8 0 12 -4 9 -10 -3 -5 -2 -10 3 -10 5 0 25 -15 44 -34 20 -19 39
-32 44 -28 4 4 4 2 0 -5 -4 -7 2 -16 13 -22 24 -13 38 -46 16 -37 -9 3 -15 0
-15 -9 0 -12 -5 -11 -30 3 -16 9 -30 20 -30 25 0 4 -5 7 -11 7 -14 0 -158 98
-181 123 -9 10 -20 18 -25 19 -12 0 -71 49 -77 63 -5 14 6 13 39 0z m1025 -51
c0 -3 -7 -12 -15 -21 -8 -8 -13 -19 -10 -24 4 -5 1 -9 -5 -9 -5 0 -32 -21 -58
-46 -51 -50 -82 -71 -82 -55 0 5 31 40 69 77 38 38 68 71 66 74 -2 3 5 7 16 7
10 1 19 -1 19 -3z m294 -86 c-9 -9 -32 -22 -50 -28 -19 -7 -34 -16 -34 -21 0
-6 -4 -8 -9 -4 -5 3 -17 -3 -27 -12 -10 -10 -19 -16 -21 -14 -7 7 -73 -22 -73
-33 0 -5 -3 -6 -7 -3 -3 4 -11 2 -18 -3 -10 -8 -40 -17 -68 -19 -5 -1 -6 -5
-3 -9 2 -4 -3 -8 -12 -8 -9 -1 -30 -4 -47 -8 l-30 -8 30 17 c16 9 33 22 37 28
4 7 8 9 8 5 0 -3 28 8 63 25 34 17 64 31 67 32 20 5 60 30 60 37 0 4 3 7 8 7
4 -1 23 4 42 12 19 7 38 12 43 11 4 -1 7 2 7 6 0 4 11 8 25 8 23 0 23 -1 9
-18z m-1318 -33 c41 -19 78 -35 82 -35 4 0 18 -9 32 -20 28 -22 40 -25 40 -10
0 6 -7 10 -15 10 -8 0 -15 5 -15 10 0 6 -6 10 -14 10 -7 0 -16 9 -19 20 -3 11
-4 20 -3 20 1 0 21 -9 44 -20 22 -11 45 -20 51 -20 5 0 11 -4 13 -9 2 -5 25
-22 52 -38 47 -27 76 -60 42 -47 -9 3 -13 11 -9 17 4 6 1 7 -6 3 -7 -5 -10
-15 -6 -23 4 -12 2 -13 -7 -6 -7 5 -23 8 -35 7 -12 0 -20 2 -18 6 3 4 -17 13
-43 20 -26 7 -51 17 -57 21 -5 5 -17 9 -27 9 -10 0 -18 5 -18 10 0 6 -7 10
-15 10 -8 0 -23 4 -33 9 -9 5 -30 15 -47 22 -57 26 -95 51 -90 59 8 13 39 4
121 -35z m1108 11 c-3 -8 -21 -22 -40 -31 -19 -9 -34 -20 -34 -25 0 -6 -5 -10
-11 -10 -6 0 -23 -8 -37 -19 -42 -29 -68 -34 -68 -13 0 12 7 18 21 18 13 -1
19 4 17 14 -2 8 0 12 4 8 4 -4 19 1 34 12 16 11 33 20 39 20 6 0 11 4 11 8 0
10 38 30 57 31 7 1 10 -5 7 -13z m46 -115 c0 -8 -44 -30 -71 -35 -33 -5 -59
-18 -59 -28 0 -6 9 -8 23 -4 12 4 31 9 42 10 11 2 20 4 20 5 0 2 7 4 15 6 8 2
29 8 47 13 17 6 34 8 37 4 3 -3 6 -1 6 5 0 5 6 10 13 11 6 0 23 3 37 7 14 3
45 9 69 11 38 5 42 4 30 -8 -14 -14 -88 -41 -139 -52 -14 -3 -34 -7 -45 -9
-26 -6 -103 -19 -110 -19 -2 1 -34 -8 -69 -18 -52 -15 -64 -16 -59 -4 3 8 9
11 14 8 5 -3 9 0 9 6 0 6 4 9 9 6 12 -8 41 4 41 16 0 6 -16 7 -40 3 -33 -6
-39 -4 -34 8 3 9 12 13 20 10 8 -3 14 1 14 8 0 7 2 10 5 7 3 -3 36 5 73 18 72
25 102 29 102 15z m-1236 -18 c4 -4 19 -9 34 -10 15 -1 61 -11 102 -22 87 -24
90 -24 90 -11 0 6 -3 9 -7 8 -14 -4 -103 25 -103 33 0 15 48 10 114 -12 35
-11 73 -21 83 -22 11 0 25 -7 33 -15 13 -14 1 -14 -93 4 -35 6 -6 -14 38 -26
24 -7 42 -17 39 -21 -3 -5 -11 -6 -17 -2 -7 4 -23 8 -37 9 -14 1 -25 2 -25 3
0 3 -27 9 -70 15 -16 3 -41 7 -55 10 -14 2 -43 7 -65 10 -64 9 -97 16 -115 26
-10 5 -20 7 -22 4 -3 -3 -8 2 -11 11 -5 12 2 15 37 15 23 0 46 -3 50 -7z m771
-34 l31 -9 -6 -73 c-6 -66 -24 -117 -42 -117 -5 0 -8 -7 -8 -15 0 -12 10 -14
54 -9 49 6 55 4 80 -22 15 -16 37 -44 49 -61 12 -18 29 -33 37 -33 35 0 99 58
119 109 13 30 36 37 47 12 10 -22 12 -74 4 -86 -5 -9 -6 -51 -1 -107 1 -11 15
-19 44 -24 43 -8 51 -10 65 -14 4 -1 16 -3 27 -4 14 -1 20 -8 21 -26 1 -36 -7
-52 -21 -46 -7 2 -18 -1 -24 -7 -8 -8 -11 -4 -11 16 0 29 -6 33 -58 41 -21 3
-38 -1 -47 -11 -13 -12 -18 -13 -30 -3 -19 16 -65 22 -65 9 0 -6 -4 -8 -9 -5
-16 10 -41 -6 -41 -26 0 -14 -5 -18 -15 -14 -8 3 -15 1 -15 -5 0 -6 -4 -7 -10
-4 -5 3 -10 21 -10 40 0 35 15 47 50 40 11 -2 20 0 20 5 0 4 18 11 40 15 25 4
40 12 40 21 0 8 6 14 13 15 7 0 8 2 2 5 -6 2 -9 20 -7 40 4 35 4 35 -19 22
-12 -7 -36 -28 -53 -47 -16 -18 -39 -37 -50 -41 -26 -10 -65 12 -91 50 -22 33
-45 24 -45 -16 0 -13 -4 -24 -10 -24 -5 0 -10 -16 -10 -36 0 -21 4 -33 10 -29
9 5 15 -18 8 -28 -2 -2 2 -10 8 -18 22 -26 40 -113 34 -159 -5 -40 -19 -70
-73 -154 -6 -11 -20 -29 -30 -40 -10 -11 -29 -45 -44 -76 -35 -75 -58 -90 -69
-45 -3 14 -10 25 -15 25 -5 0 -9 9 -9 21 0 11 -8 33 -19 47 -23 33 -53 120
-46 132 3 5 2 11 -3 14 -13 8 -6 103 11 146 44 117 50 157 27 185 -6 7 -11 24
-12 39 l-2 27 -28 -32 c-15 -17 -28 -36 -28 -40 0 -8 -28 -42 -81 -97 -49 -52
-76 -124 -53 -143 9 -8 11 -16 4 -29 -6 -11 -5 -21 3 -30 9 -10 9 -11 -1 -5
-11 6 -11 3 0 -16 7 -13 16 -26 19 -29 3 -3 25 -34 49 -70 24 -36 46 -67 49
-70 3 -3 11 -12 16 -21 26 -41 91 -135 103 -147 6 -7 12 -20 12 -28 0 -8 5
-14 10 -14 6 0 10 -13 10 -29 0 -17 -4 -33 -10 -36 -5 -3 -10 -2 -10 3 0 5 -8
12 -17 14 -10 3 -25 18 -33 34 -8 16 -17 31 -20 34 -7 7 -27 39 -50 83 -11 20
-24 37 -29 37 -5 0 -12 11 -15 25 -4 14 -11 25 -16 25 -6 0 -10 7 -10 15 0 8
-8 23 -17 33 -19 20 -29 34 -65 94 -15 23 -32 38 -50 42 -22 4 -28 11 -28 31
0 14 -9 46 -20 70 -11 24 -17 50 -15 58 6 15 35 19 35 5 0 -5 10 -8 23 -6 12
2 20 7 19 12 -2 5 1 12 6 15 5 3 35 56 67 116 31 61 64 116 73 123 9 6 12 12
8 12 -4 0 2 12 13 26 12 15 21 33 21 40 0 8 8 15 18 16 48 4 58 4 71 -6 11 -8
13 -8 8 1 -5 7 1 18 13 25 11 7 20 19 20 26 0 7 -4 11 -10 7 -5 -3 -18 3 -29
14 -20 20 -20 65 0 104 5 9 7 17 4 17 -13 0 25 43 47 54 23 12 38 12 93 -5z
m478 -52 c4 3 7 1 7 -5 0 -14 -20 -19 -100 -27 -111 -11 -120 -11 -120 -3 0 4
3 8 8 9 8 1 48 8 72 14 8 2 37 4 63 4 36 1 46 4 41 14 -6 9 -5 9 8 0 8 -7 18
-10 21 -6z m-928 -31 c11 -3 22 -5 25 -5 3 -1 -1 -5 -8 -9 -17 -12 -187 -5
-211 7 -10 6 -22 7 -26 3 -5 -4 -5 -2 -2 4 6 11 168 11 222 0z m1154 -21 c8
-9 -10 -19 -39 -21 -15 -1 -34 -5 -41 -9 -8 -6 -10 -4 -4 5 6 9 4 11 -5 5 -19
-12 -324 -15 -341 -4 -9 6 -3 8 19 5 17 -2 32 0 32 4 0 4 15 7 33 8 46 0 241
13 244 16 4 4 97 -4 102 -9z m-1211 -15 c28 -2 52 -7 52 -11 0 -5 -8 -9 -17
-10 -171 -7 -382 -9 -401 -4 -29 7 -22 18 16 23 15 2 27 4 28 5 3 2 249 0 322
-3z m1042 -464 c0 5 6 -2 14 -16 17 -33 2 -50 -53 -57 -62 -8 -87 20 -55 62
14 18 16 19 25 3 14 -25 44 -16 42 13 -3 23 -2 23 12 5 8 -11 15 -16 15 -10z
m-341 -21 c11 -1 22 4 25 12 8 20 20 16 32 -11 9 -20 8 -27 -8 -40 -19 -17
-47 -17 -95 -1 -22 7 -22 8 -7 38 12 22 18 26 24 17 5 -8 18 -14 29 -15z"/>
<path d="M2080 3796 c0 -2 7 -9 15 -16 9 -7 15 -8 15 -2 0 5 -7 12 -15 16 -8
3 -15 4 -15 2z"/>
<path d="M2143 3755 c0 -7 6 -11 14 -8 7 3 13 6 13 8 0 2 -6 5 -13 8 -8 3 -14
-1 -14 -8z"/>
<path d="M2556 2973 c-4 -13 -14 -30 -23 -38 -8 -9 -13 -18 -10 -21 8 -8 49
55 44 69 -2 6 -7 2 -11 -10z"/>
</g>
</svg>
